<svg width="192" height="192" viewBox="0 0 192 192" fill="none" xmlns="http://www.w3.org/2000/svg">
<path d="M153.187 67.0965C152.862 66.3473 150.18 64.8488 141.924 65.7863C144.001 68.7506 145.8 71.9355 147.291 75.3094C152.721 70.4681 153.505 67.827 153.188 67.0965H153.187Z" fill="black"/>
<path d="M140.515 124.161C145.834 115.086 148.262 104.506 147.465 94.0901C134.856 101.445 119.994 108.93 104.129 115.874C87.9368 122.961 72.4005 128.75 58.7235 132.935C68.5676 143.661 82.2626 149.496 96.3296 149.497C102.443 149.497 108.623 148.396 114.591 146.117C125.594 141.917 134.558 134.324 140.514 124.161H140.515Z" fill="black"/>
<path d="M167.663 58.5259C162.952 58.89 157.239 59.8384 150.785 61.3114C154.826 61.9871 156.599 63.6551 157.315 65.3032C159.326 69.936 154.485 76.2986 142.516 84.7556C131.888 92.2646 116.974 100.366 100.521 107.566C86.259 113.809 71.8958 118.871 60.0765 121.822C54.1916 123.291 46.9485 124.731 41.1667 124.731C38.6122 124.731 36.3427 124.449 34.6012 123.766C32.8335 123.071 31.6238 121.997 31.005 120.573C30.0919 118.472 30.5396 116.016 32.3344 113.223C26.8387 116.962 22.2701 120.49 18.8509 123.657C12.975 129.099 11.5222 132.513 12.1219 133.894C12.3926 134.516 13.1977 134.941 13.8259 135.188C22.7584 138.695 56.808 131.673 102.325 111.751C125.154 101.76 145.851 90.6577 160.604 80.49C177.599 68.7761 180.716 62.3865 179.878 60.4579C179.321 59.1746 175.787 57.8985 167.663 58.5266L167.663 58.5259Z" fill="black"/>
<path d="M48.5029 116.337C48.8921 117.366 49.3196 118.389 49.7756 119.395C61.2416 117.492 78.4114 112.331 98.7172 103.443C114.899 96.3611 129.532 88.419 139.919 81.0799C141.308 80.0989 142.552 79.1745 143.677 78.3011C141.577 73.2217 138.732 68.5856 135.253 64.5157C134.993 64.3237 134.772 64.0762 134.612 63.7822C129.862 58.4374 123.998 54.1132 117.288 51.1012C104.824 45.5074 90.9311 45.1099 78.1699 49.983C56.1641 58.3856 43.2585 80.4604 45.3832 102.925C45.4886 103.242 45.519 103.572 45.4819 103.892C45.9566 108.062 46.95 112.239 48.5036 116.338L48.5029 116.337Z" fill="black"/>
<path d="M35.1326 118.78C35.2541 119.059 35.6498 119.343 36.2468 119.577C38.0048 120.267 41.0333 120.426 45.1365 120.02C44.8425 119.328 44.5598 118.631 44.295 117.932C43.2476 115.168 42.4358 112.371 41.8455 109.564C35.7356 114.772 34.719 117.827 35.133 118.78H35.1326Z" fill="black"/>
</svg>
